<svg xmlns="http://www.w3.org/2000/svg" viewBox="0 0 760 280" width="100%" height="auto" role="img" aria-label="Stud bolt 5/8"-11 UNC-2A, 2" — Class 150 — RF">
    <rect width="760" height="280" fill="#0E1117" rx="6" />
    <defs>
      <marker id="arrL" markerWidth="6" markerHeight="6" refX="0" refY="3" orient="auto"><path d="M6,0 L0,3 L6,6" fill="none" stroke="#FF8C00" stroke-width="1"/></marker>
      <marker id="arrR" markerWidth="6" markerHeight="6" refX="6" refY="3" orient="auto"><path d="M0,0 L6,3 L0,6" fill="none" stroke="#FF8C00" stroke-width="1"/></marker>
      <marker id="arrLB" markerWidth="5" markerHeight="5" refX="0" refY="2.5" orient="auto"><path d="M5,0 L0,2.5 L5,5" fill="none" stroke="#3EA6FF" stroke-width="0.8"/></marker>
      <marker id="arrRB" markerWidth="5" markerHeight="5" refX="5" refY="2.5" orient="auto"><path d="M0,0 L5,2.5 L0,5" fill="none" stroke="#3EA6FF" stroke-width="0.8"/></marker>
    </defs>

    <rect x="300.44" y="-50.21310240963854" width="70.72" height="380.4262048192771" fill="#27272a" stroke="#A3A9B3" stroke-width="1.5" rx="2" />
    <text x="335.8" y="144" fill="#71717a" font-size="9" text-anchor="middle">FLANGE</text>

    <rect x="371.16" y="-38.21310240963854" width="17.68" height="356.4262048192771" fill="#22d3ee15" stroke="#22d3ee" stroke-width="1" />
    <text x="380" y="-44.21310240963854" fill="#22d3ee" font-size="8" text-anchor="middle">GASKET</text>

    <rect x="388.84" y="-50.21310240963854" width="70.72" height="380.4262048192771" fill="#27272a" stroke="#A3A9B3" stroke-width="1.5" rx="2" />
    <text x="424.2" y="144" fill="#71717a" font-size="9" text-anchor="middle">FLANGE</text>

    <rect x="159.00000000000003" y="97.730421686747" width="441.99999999999994" height="84.53915662650601" fill="#1a2030" stroke="#FF8C00" stroke-width="1.2" />

    <line x1="165.1507228915663" y1="97.730421686747" x2="160.8452168674699" y2="182.26957831325302" stroke="#3EA6FF" stroke-width="0.7" opacity="0.85" /><line x1="177.45216867469884" y1="97.730421686747" x2="173.14666265060245" y2="182.26957831325302" stroke="#3EA6FF" stroke-width="0.7" opacity="0.85" /><line x1="189.75361445783136" y1="97.730421686747" x2="185.44810843373497" y2="182.26957831325302" stroke="#3EA6FF" stroke-width="0.7" opacity="0.85" />
    <line x1="570.2463855421687" y1="97.730421686747" x2="565.9408795180723" y2="182.26957831325302" stroke="#3EA6FF" stroke-width="0.7" opacity="0.85" /><line x1="582.5478313253012" y1="97.730421686747" x2="578.2423253012048" y2="182.26957831325302" stroke="#3EA6FF" stroke-width="0.7" opacity="0.85" /><line x1="594.8492771084337" y1="97.730421686747" x2="590.5437710843373" y2="182.26957831325302" stroke="#3EA6FF" stroke-width="0.7" opacity="0.85" />

    <polygon points="210.2826506024097,100.06024096385542 325.3091566265061,100.06024096385542 339.6874698795181,140 325.3091566265061,179.93975903614458 210.2826506024097,179.93975903614458 195.90433734939762,140" fill="#232A36" stroke="#FF8C00" stroke-width="1.5" />
    <line x1="231.85012048192775" y1="113.37349397590361" x2="303.74168674698797" y2="113.37349397590361" stroke="#3f3f46" stroke-width="0.5" />
    <line x1="231.85012048192775" y1="166.6265060240964" x2="303.74168674698797" y2="166.6265060240964" stroke="#3f3f46" stroke-width="0.5" />

    <polygon points="434.690843373494,100.06024096385542 549.7173493975904,100.06024096385542 564.0956626506024,140 549.7173493975904,179.93975903614458 434.690843373494,179.93975903614458 420.31253012048194,140" fill="#232A36" stroke="#FF8C00" stroke-width="1.5" />
    <line x1="456.2583132530121" y1="113.37349397590361" x2="528.1498795180723" y2="113.37349397590361" stroke="#3f3f46" stroke-width="0.5" />
    <line x1="456.2583132530121" y1="166.6265060240964" x2="528.1498795180723" y2="166.6265060240964" stroke="#3f3f46" stroke-width="0.5" />

    <line x1="159.00000000000003" y1="348.2131024096385" x2="601" y2="348.2131024096385" stroke="#FF8C00" stroke-width="1.2" marker-start="url(#arrL)" marker-end="url(#arrR)" />
    <text x="380" y="362.2131024096385" fill="#FF8C00" font-size="11" text-anchor="middle" font-weight="bold">L = 3.268" (83 mm)</text>

    <line x1="159.00000000000003" y1="372.2131024096385" x2="195.90433734939762" y2="372.2131024096385" stroke="#FF8C00" stroke-width="1" marker-start="url(#arrL)" marker-end="url(#arrR)" />
    <text x="177.4521686746988" y="382.2131024096385" fill="#FF8C00" font-size="9" text-anchor="middle">e₁ ≥ 3P (6.9 mm)</text>

    <line x1="564.0956626506024" y1="372.2131024096385" x2="601" y2="372.2131024096385" stroke="#FF8C00" stroke-width="1" marker-start="url(#arrL)" marker-end="url(#arrR)" />
    <text x="582.5478313253012" y="382.2131024096385" fill="#FF8C00" font-size="9" text-anchor="middle">e₂ ≥ 3P (6.9 mm)</text>

    <text x="380" y="69.730421686747" fill="#3EA6FF" font-size="10" text-anchor="middle">TPI = 11 · P = 2.309 mm</text>
    <line x1="373.85193975903616" y1="75.730421686747" x2="386.14806024096384" y2="75.730421686747" stroke="#3EA6FF" stroke-width="0.8" marker-start="url(#arrLB)" marker-end="url(#arrRB)" />

    <line x1="380" y1="87.730421686747" x2="380" y2="186.26957831325302" stroke="#3EA6FF" stroke-width="0.8" stroke-dasharray="3 2" />
    <text x="386" y="83.730421686747" fill="#3EA6FF" font-size="10" text-anchor="start">Ø5/8" (15.875 mm)</text>

    <line x1="189.90433734939762" y1="92.06024096385542" x2="345.6874698795181" y2="92.06024096385542" stroke="#3EA6FF" stroke-width="0.8" marker-start="url(#arrLB)" marker-end="url(#arrRB)" />
    <text x="267.79590361445787" y="86.06024096385542" fill="#3EA6FF" font-size="9" text-anchor="middle">AF 27.0 mm</text>

    <line x1="576.0956626506024" y1="100.06024096385542" x2="576.0956626506024" y2="179.93975903614458" stroke="#3EA6FF" stroke-width="0.8" marker-start="url(#arrLB)" marker-end="url(#arrRB)" />
    <text x="582.0956626506024" y="143" fill="#3EA6FF" font-size="9" text-anchor="start">H 15.0 mm</text>

    <text x="750" y="18" fill="#A3A9B3" font-size="9" text-anchor="end">2" — Class 150 — RF</text>
  </svg>