<svg xmlns="http://www.w3.org/2000/svg" viewBox="0 0 760 280" width="100%" height="auto" role="img" aria-label="Stud bolt 1-1/2"-8 UN-2A, 22" — Class 300 — RF">
    <rect width="760" height="280" fill="#0E1117" rx="6" />
    <defs>
      <marker id="arrL" markerWidth="6" markerHeight="6" refX="0" refY="3" orient="auto"><path d="M6,0 L0,3 L6,6" fill="none" stroke="#FF8C00" stroke-width="1"/></marker>
      <marker id="arrR" markerWidth="6" markerHeight="6" refX="6" refY="3" orient="auto"><path d="M0,0 L6,3 L0,6" fill="none" stroke="#FF8C00" stroke-width="1"/></marker>
      <marker id="arrLB" markerWidth="5" markerHeight="5" refX="0" refY="2.5" orient="auto"><path d="M5,0 L0,2.5 L5,5" fill="none" stroke="#3EA6FF" stroke-width="0.8"/></marker>
      <marker id="arrRB" markerWidth="5" markerHeight="5" refX="5" refY="2.5" orient="auto"><path d="M0,0 L5,2.5 L0,5" fill="none" stroke="#3EA6FF" stroke-width="0.8"/></marker>
    </defs>

    <rect x="300.44" y="-25.460480349344977" width="70.72" height="330.92096069868995" fill="#27272a" stroke="#A3A9B3" stroke-width="1.5" rx="2" />
    <text x="335.8" y="144" fill="#71717a" font-size="9" text-anchor="middle">FLANGE</text>

    <rect x="371.16" y="-13.460480349344977" width="17.68" height="306.92096069868995" fill="#22d3ee15" stroke="#22d3ee" stroke-width="1" />
    <text x="380" y="-19.460480349344977" fill="#22d3ee" font-size="8" text-anchor="middle">GASKET</text>

    <rect x="388.84" y="-25.460480349344977" width="70.72" height="330.92096069868995" fill="#27272a" stroke="#A3A9B3" stroke-width="1.5" rx="2" />
    <text x="424.2" y="144" fill="#71717a" font-size="9" text-anchor="middle">FLANGE</text>

    <rect x="159" y="103.23100436681223" width="442" height="73.53799126637554" fill="#1a2030" stroke="#FF8C00" stroke-width="1.2" />

    <line x1="162.06247452692867" y1="103.23100436681223" x2="159.9187423580786" y2="176.76899563318779" stroke="#3EA6FF" stroke-width="0.7" opacity="0.85" /><line x1="168.18742358078603" y1="103.23100436681223" x2="166.04369141193595" y2="176.76899563318779" stroke="#3EA6FF" stroke-width="0.7" opacity="0.85" /><line x1="174.3123726346434" y1="103.23100436681223" x2="172.16864046579332" y2="176.76899563318779" stroke="#3EA6FF" stroke-width="0.7" opacity="0.85" />
    <line x1="585.6876273653567" y1="103.23100436681223" x2="583.5438951965066" y2="176.76899563318779" stroke="#3EA6FF" stroke-width="0.7" opacity="0.85" /><line x1="591.812576419214" y1="103.23100436681223" x2="589.6688442503639" y2="176.76899563318779" stroke="#3EA6FF" stroke-width="0.7" opacity="0.85" /><line x1="597.9375254730713" y1="103.23100436681223" x2="595.7937933042213" y2="176.76899563318779" stroke="#3EA6FF" stroke-width="0.7" opacity="0.85" />

    <polygon points="188.95563318777292,104.29257641921397 281.6019213973799,104.29257641921397 293.1827074235808,140 281.6019213973799,175.70742358078604 188.95563318777292,175.70742358078604 177.37484716157206,140" fill="#232A36" stroke="#FF8C00" stroke-width="1.5" />
    <line x1="206.32681222707424" y1="116.19505094614264" x2="264.2307423580786" y2="116.19505094614264" stroke="#3f3f46" stroke-width="0.5" />
    <line x1="206.32681222707424" y1="163.80494905385734" x2="264.2307423580786" y2="163.80494905385734" stroke="#3f3f46" stroke-width="0.5" />

    <polygon points="478.39807860262016,104.29257641921397 571.0443668122272,104.29257641921397 582.625152838428,140 571.0443668122272,175.70742358078604 478.39807860262016,175.70742358078604 466.8172925764193,140" fill="#232A36" stroke="#FF8C00" stroke-width="1.5" />
    <line x1="495.76925764192146" y1="116.19505094614264" x2="553.6731877729259" y2="116.19505094614264" stroke="#3f3f46" stroke-width="0.5" />
    <line x1="495.76925764192146" y1="163.80494905385734" x2="553.6731877729259" y2="163.80494905385734" stroke="#3f3f46" stroke-width="0.5" />

    <line x1="159" y1="323.46048034934495" x2="601" y2="323.46048034934495" stroke="#FF8C00" stroke-width="1.2" marker-start="url(#arrL)" marker-end="url(#arrR)" />
    <text x="380" y="337.46048034934495" fill="#FF8C00" font-size="11" text-anchor="middle" font-weight="bold">L = 9.016" (229 mm)</text>

    <line x1="159" y1="347.46048034934495" x2="177.37484716157206" y2="347.46048034934495" stroke="#FF8C00" stroke-width="1" marker-start="url(#arrL)" marker-end="url(#arrR)" />
    <text x="168.18742358078603" y="357.46048034934495" fill="#FF8C00" font-size="9" text-anchor="middle">e₁ ≥ 3P (9.5 mm)</text>

    <line x1="582.625152838428" y1="347.46048034934495" x2="601" y2="347.46048034934495" stroke="#FF8C00" stroke-width="1" marker-start="url(#arrL)" marker-end="url(#arrR)" />
    <text x="591.812576419214" y="357.46048034934495" fill="#FF8C00" font-size="9" text-anchor="middle">e₂ ≥ 3P (9.5 mm)</text>

    <text x="380" y="75.23100436681223" fill="#3EA6FF" font-size="10" text-anchor="middle">TPI = 8 · P = 3.175 mm</text>
    <line x1="376.9359170305677" y1="81.23100436681223" x2="383.0640829694323" y2="81.23100436681223" stroke="#3EA6FF" stroke-width="0.8" marker-start="url(#arrLB)" marker-end="url(#arrRB)" />

    <line x1="380" y1="93.23100436681223" x2="380" y2="180.76899563318779" stroke="#3EA6FF" stroke-width="0.8" stroke-dasharray="3 2" />
    <text x="386" y="89.23100436681223" fill="#3EA6FF" font-size="10" text-anchor="start">Ø1-1/2" (38.100 mm)</text>

    <line x1="171.37484716157206" y1="96.29257641921397" x2="299.1827074235808" y2="96.29257641921397" stroke="#3EA6FF" stroke-width="0.8" marker-start="url(#arrLB)" marker-end="url(#arrRB)" />
    <text x="235.27877729257642" y="90.29257641921397" fill="#3EA6FF" font-size="9" text-anchor="middle">AF 60.0 mm</text>

    <line x1="594.625152838428" y1="104.29257641921397" x2="594.625152838428" y2="175.70742358078604" stroke="#3EA6FF" stroke-width="0.8" marker-start="url(#arrLB)" marker-end="url(#arrRB)" />
    <text x="600.625152838428" y="143" fill="#3EA6FF" font-size="9" text-anchor="start">H 37.0 mm</text>

    <text x="750" y="18" fill="#A3A9B3" font-size="9" text-anchor="end">22" — Class 300 — RF</text>
  </svg>