<svg xmlns="http://www.w3.org/2000/svg" viewBox="0 0 760 280" width="100%" height="auto" role="img" aria-label="Stud bolt 5/8"-11 UNC-2A, 3-1/2" — Class 150 — RF">
    <rect width="760" height="280" fill="#0E1117" rx="6" />
    <defs>
      <marker id="arrL" markerWidth="6" markerHeight="6" refX="0" refY="3" orient="auto"><path d="M6,0 L0,3 L6,6" fill="none" stroke="#FF8C00" stroke-width="1"/></marker>
      <marker id="arrR" markerWidth="6" markerHeight="6" refX="6" refY="3" orient="auto"><path d="M0,0 L6,3 L0,6" fill="none" stroke="#FF8C00" stroke-width="1"/></marker>
      <marker id="arrLB" markerWidth="5" markerHeight="5" refX="0" refY="2.5" orient="auto"><path d="M5,0 L0,2.5 L5,5" fill="none" stroke="#3EA6FF" stroke-width="0.8"/></marker>
      <marker id="arrRB" markerWidth="5" markerHeight="5" refX="5" refY="2.5" orient="auto"><path d="M0,0 L5,2.5 L0,5" fill="none" stroke="#3EA6FF" stroke-width="0.8"/></marker>
    </defs>

    <rect x="300.44" y="-37.38974719101125" width="70.72" height="354.7794943820225" fill="#27272a" stroke="#A3A9B3" stroke-width="1.5" rx="2" />
    <text x="335.8" y="144" fill="#71717a" font-size="9" text-anchor="middle">FLANGE</text>

    <rect x="371.16" y="-25.389747191011253" width="17.68" height="330.7794943820225" fill="#22d3ee15" stroke="#22d3ee" stroke-width="1" />
    <text x="380" y="-31.389747191011253" fill="#22d3ee" font-size="8" text-anchor="middle">GASKET</text>

    <rect x="388.84" y="-37.38974719101125" width="70.72" height="354.7794943820225" fill="#27272a" stroke="#A3A9B3" stroke-width="1.5" rx="2" />
    <text x="424.2" y="144" fill="#71717a" font-size="9" text-anchor="middle">FLANGE</text>

    <rect x="159" y="100.58005617977528" width="442" height="78.83988764044945" fill="#1a2030" stroke="#FF8C00" stroke-width="1.2" />

    <line x1="164.73606741573033" y1="100.58005617977528" x2="160.7208202247191" y2="179.41994382022472" stroke="#3EA6FF" stroke-width="0.7" opacity="0.85" /><line x1="176.20820224719102" y1="100.58005617977528" x2="172.19295505617978" y2="179.41994382022472" stroke="#3EA6FF" stroke-width="0.7" opacity="0.85" /><line x1="187.68033707865172" y1="100.58005617977528" x2="183.66508988764048" y2="179.41994382022472" stroke="#3EA6FF" stroke-width="0.7" opacity="0.85" />
    <line x1="572.3196629213483" y1="100.58005617977528" x2="568.304415730337" y2="179.41994382022472" stroke="#3EA6FF" stroke-width="0.7" opacity="0.85" /><line x1="583.791797752809" y1="100.58005617977528" x2="579.7765505617978" y2="179.41994382022472" stroke="#3EA6FF" stroke-width="0.7" opacity="0.85" /><line x1="595.2639325842697" y1="100.58005617977528" x2="591.2486853932585" y2="179.41994382022472" stroke="#3EA6FF" stroke-width="0.7" opacity="0.85" />

    <polygon points="206.825393258427,102.75280898876404 314.09730337078656,102.75280898876404 327.5062921348315,140 314.09730337078656,177.24719101123594 206.825393258427,177.24719101123594 193.41640449438205,140" fill="#232A36" stroke="#FF8C00" stroke-width="1.5" />
    <line x1="226.9388764044944" y1="115.1685393258427" x2="293.9838202247191" y2="115.1685393258427" stroke="#3f3f46" stroke-width="0.5" />
    <line x1="226.9388764044944" y1="164.8314606741573" x2="293.9838202247191" y2="164.8314606741573" stroke="#3f3f46" stroke-width="0.5" />

    <polygon points="445.90269662921344,102.75280898876404 553.174606741573,102.75280898876404 566.583595505618,140 553.174606741573,177.24719101123594 445.90269662921344,177.24719101123594 432.4937078651685,140" fill="#232A36" stroke="#FF8C00" stroke-width="1.5" />
    <line x1="466.0161797752809" y1="115.1685393258427" x2="533.0611235955056" y2="115.1685393258427" stroke="#3f3f46" stroke-width="0.5" />
    <line x1="466.0161797752809" y1="164.8314606741573" x2="533.0611235955056" y2="164.8314606741573" stroke="#3f3f46" stroke-width="0.5" />

    <line x1="159" y1="335.3897471910112" x2="601" y2="335.3897471910112" stroke="#FF8C00" stroke-width="1.2" marker-start="url(#arrL)" marker-end="url(#arrR)" />
    <text x="380" y="349.3897471910112" fill="#FF8C00" font-size="11" text-anchor="middle" font-weight="bold">L = 3.504" (89 mm)</text>

    <line x1="159" y1="359.3897471910112" x2="193.41640449438205" y2="359.3897471910112" stroke="#FF8C00" stroke-width="1" marker-start="url(#arrL)" marker-end="url(#arrR)" />
    <text x="176.20820224719102" y="369.3897471910112" fill="#FF8C00" font-size="9" text-anchor="middle">e₁ ≥ 3P (6.9 mm)</text>

    <line x1="566.583595505618" y1="359.3897471910112" x2="601" y2="359.3897471910112" stroke="#FF8C00" stroke-width="1" marker-start="url(#arrL)" marker-end="url(#arrR)" />
    <text x="583.791797752809" y="369.3897471910112" fill="#FF8C00" font-size="9" text-anchor="middle">e₂ ≥ 3P (6.9 mm)</text>

    <text x="380" y="72.58005617977528" fill="#3EA6FF" font-size="10" text-anchor="middle">TPI = 11 · P = 2.309 mm</text>
    <line x1="374.2664157303371" y1="78.58005617977528" x2="385.7335842696629" y2="78.58005617977528" stroke="#3EA6FF" stroke-width="0.8" marker-start="url(#arrLB)" marker-end="url(#arrRB)" />

    <line x1="380" y1="90.58005617977528" x2="380" y2="183.41994382022472" stroke="#3EA6FF" stroke-width="0.8" stroke-dasharray="3 2" />
    <text x="386" y="86.58005617977528" fill="#3EA6FF" font-size="10" text-anchor="start">Ø5/8" (15.875 mm)</text>

    <line x1="187.41640449438205" y1="94.75280898876404" x2="333.5062921348315" y2="94.75280898876404" stroke="#3EA6FF" stroke-width="0.8" marker-start="url(#arrLB)" marker-end="url(#arrRB)" />
    <text x="260.46134831460677" y="88.75280898876404" fill="#3EA6FF" font-size="9" text-anchor="middle">AF 27.0 mm</text>

    <line x1="578.583595505618" y1="102.75280898876404" x2="578.583595505618" y2="177.24719101123594" stroke="#3EA6FF" stroke-width="0.8" marker-start="url(#arrLB)" marker-end="url(#arrRB)" />
    <text x="584.583595505618" y="143" fill="#3EA6FF" font-size="9" text-anchor="start">H 15.0 mm</text>

    <text x="750" y="18" fill="#A3A9B3" font-size="9" text-anchor="end">3-1/2" — Class 150 — RF</text>
  </svg>