<svg xmlns="http://www.w3.org/2000/svg" viewBox="0 0 800 700" width="800" height="700">
  <defs><style>
    .profile{stroke:#1a1a1a;stroke-width:2;fill:#e2e5e8}
    .bore{stroke:#555;stroke-width:1;fill:none;stroke-dasharray:4 2}
    .centerline{stroke:#999;stroke-width:.8;stroke-dasharray:8 4;fill:none}
    .dim-line{stroke:#c62828;stroke-width:.9;fill:none}
    .dim-text{font-family:'Segoe UI',Arial,sans-serif;font-size:13px;fill:#c62828;text-anchor:middle}
    .dim-sub{font-family:'Segoe UI',Arial,sans-serif;font-size:11px;fill:#c62828;text-anchor:middle}
    .title{font-family:'Segoe UI',Arial,sans-serif;font-size:18px;font-weight:600;fill:#1a1a1a}
    .subtitle{font-family:'Segoe UI',Arial,sans-serif;font-size:13px;fill:#555}
    .std-ref{font-family:'Segoe UI',Arial,sans-serif;font-size:11px;fill:#888}
    .note{font-family:'Segoe UI',Arial,sans-serif;font-size:10.5px;fill:#888}
    .label{font-family:'Segoe UI',Arial,sans-serif;font-size:11px;fill:#999;text-anchor:middle}
    .tbl-hdr{font-family:'Segoe UI',Arial,sans-serif;font-size:12px;fill:#1a1a1a;font-weight:600;text-anchor:middle}
    .tbl-key{font-family:'Segoe UI',Arial,sans-serif;font-size:10.5px;fill:#555;text-anchor:start}
    .tbl-val{font-family:'Segoe UI',Arial,sans-serif;font-size:10.5px;fill:#888;text-anchor:end}
  </style>
  <marker id="as" markerWidth="8" markerHeight="6" refX="0" refY="3" orient="auto"><path d="M8,0 L0,3 L8,6" fill="none" stroke="#c62828" stroke-width=".8"/></marker>
  <marker id="ae" markerWidth="8" markerHeight="6" refX="8" refY="3" orient="auto"><path d="M0,0 L8,3 L0,6" fill="none" stroke="#c62828" stroke-width=".8"/></marker>
  </defs>
  <rect width="800" height="700" fill="#fafafa"/>
  <text x="40" y="40" class="title">Welding Neck Flange</text>
  <text x="40" y="60" class="subtitle">NPS 12 (DN 300) — Class 150 — Raised Face</text>
  <text x="40" y="78" class="std-ref">ASME B16.5-2020 | WN RF</text>
  <rect x="272" y="91" width="28" height="418" class="profile"/>
  <rect x="300" y="152" width="4" height="297" fill="#d0d5da" stroke="#1a1a1a" stroke-width="1.5"/>
  <path d="M 272 116 L 215 169 L 215 431 L 272 484 Z" class="profile"/>
  <line x1="195" y1="169" x2="314" y2="169" class="bore"/>
  <line x1="195" y1="431" x2="314" y2="431" class="bore"/>
  <circle cx="286" cy="113" r="5" fill="white" stroke="#1a1a1a" stroke-width="1"/>
  <circle cx="286" cy="487" r="5" fill="white" stroke="#1a1a1a" stroke-width="1"/>
  <line x1="286" y1="86" x2="286" y2="514" class="bore"/>
  <line x1="175" y1="300" x2="330" y2="300" class="centerline"/>
  <text x="170" y="304" class="label" text-anchor="end">CL</text>
  <line x1="286" y1="76" x2="286" y2="524" class="centerline"/>
  <line x1="310" y1="91.0" x2="360" y2="91.0" stroke="#c62828" stroke-width=".5" stroke-dasharray="2 2"/>
  <line x1="310" y1="509.0" x2="360" y2="509.0" stroke="#c62828" stroke-width=".5" stroke-dasharray="2 2"/>
  <line x1="355" y1="91.0" x2="355" y2="509.0" class="dim-line" marker-start="url(#as)" marker-end="url(#ae)"/>
  <text x="363" y="295.0" class="dim-text" text-anchor="start">D</text>
  <text x="363" y="310.0" class="dim-sub" text-anchor="start">19.000" | 482.6 mm</text>
  <line x1="272.5" y1="519.0" x2="272.5" y2="549.0" stroke="#c62828" stroke-width=".5" stroke-dasharray="2 2"/>
  <line x1="300" y1="519.0" x2="300" y2="549.0" stroke="#c62828" stroke-width=".5" stroke-dasharray="2 2"/>
  <line x1="272.5" y1="544.0" x2="300" y2="544.0" class="dim-line" marker-start="url(#as)" marker-end="url(#ae)"/>
  <text x="286" y="537.0" class="dim-text">T</text>
  <text x="286" y="559.0" class="dim-sub">1.250" | 31.8 mm</text>
  <line x1="214.86" y1="564.0" x2="214.86" y2="589.0" stroke="#c62828" stroke-width=".5" stroke-dasharray="2 2"/>
  <line x1="214.86" y1="584.0" x2="272.5" y2="584.0" class="dim-line" marker-start="url(#as)" marker-end="url(#ae)"/>
  <text x="244" y="577.0" class="dim-text">Hub L</text>
  <text x="244" y="599.0" class="dim-sub">2.620" | 66.5 mm</text>
  <line x1="199.86" y1="153.682" x2="199.86" y2="153.682" class="dim-line" marker-start="url(#as)" marker-end="url(#ae)"/>
  <text x="200" y="146.682" class="dim-text"></text>
  <text x="200" y="168.682" class="dim-sub">0.000" | 0.0 mm</text>
  <line x1="184.86" y1="168.682" x2="209.86" y2="168.682" stroke="#c62828" stroke-width=".5" stroke-dasharray="2 2"/>
  <line x1="184.86" y1="431.318" x2="209.86" y2="431.318" stroke="#c62828" stroke-width=".5" stroke-dasharray="2 2"/>
  <line x1="189.86" y1="168.682" x2="189.86" y2="431.318" class="dim-line" marker-start="url(#as)" marker-end="url(#ae)"/>
  <text x="197.86" y="295.0" class="dim-text" text-anchor="start">Bore</text>
  <text x="197.86" y="310.0" class="dim-sub" text-anchor="start">11.938" | 303.2 mm</text>
  <line x1="309" y1="151.5" x2="350" y2="151.5" stroke="#c62828" stroke-width=".5" stroke-dasharray="2 2"/>
  <line x1="309" y1="448.5" x2="350" y2="448.5" stroke="#c62828" stroke-width=".5" stroke-dasharray="2 2"/>
  <line x1="345" y1="151.5" x2="345" y2="448.5" class="dim-line" marker-start="url(#as)" marker-end="url(#ae)"/>
  <text x="353" y="295.0" class="dim-text" text-anchor="start">RF</text>
  <text x="353" y="310.0" class="dim-sub" text-anchor="start">13.500" | 342.9 mm</text>
  <rect x="530" y="120" width="240" height="186" rx="4" fill="white" stroke="#ddd" stroke-width=".8"/>
  <text x="650" y="140" class="tbl-hdr">NPS 12 — Key Data</text>
  <line x1="545" y1="148" x2="755" y2="148" stroke="#eee" stroke-width=".5"/>
  <text x="550" y="165" class="tbl-key">NPS / DN</text>
  <text x="750" y="165" class="tbl-val">12 / 300</text>
  <text x="550" y="182" class="tbl-key">Class</text>
  <text x="750" y="182" class="tbl-val">150</text>
  <text x="550" y="199" class="tbl-key">D (flange OD)</text>
  <text x="750" y="199" class="tbl-val">19.000" | 482.6 mm</text>
  <text x="550" y="216" class="tbl-key">BCD</text>
  <text x="750" y="216" class="tbl-val">17.000" | 431.8 mm</text>
  <text x="550" y="233" class="tbl-key">T (thickness)</text>
  <text x="750" y="233" class="tbl-val">1.250" | 31.8 mm</text>
  <text x="550" y="250" class="tbl-key">Hub length</text>
  <text x="750" y="250" class="tbl-val">2.620" | 66.5 mm</text>
  <text x="550" y="267" class="tbl-key">Bore</text>
  <text x="750" y="267" class="tbl-val">11.938" | 303.2 mm</text>
  <text x="550" y="284" class="tbl-key">Bolts</text>
  <text x="750" y="284" class="tbl-val">12 x 7/8"</text>
  <line x1="40" y1="630" x2="760" y2="630" stroke="#ddd" stroke-width=".5"/>
  <text x="40" y="648" class="note">Welding Neck Flange per ASME B16.5-2020, Class 150, Raised Face.</text>
  <text x="40" y="663" class="note">D = flange OD. BCD = bolt circle dia. T = flange thickness. Hub L = hub length.</text>
  <text x="40" y="678" class="note">Bore per ASME B36.10M. Wall thickness varies by schedule. All dims in inches and mm.</text>
  <text x="760" y="692" class="note" text-anchor="end" fill="#ccc">PIPINGBOX</text>
</svg>