<svg xmlns="http://www.w3.org/2000/svg" viewBox="0 0 800 700" width="800" height="700">
  <defs><style>
    .profile{stroke:#1a1a1a;stroke-width:2;fill:#e2e5e8}
    .bore{stroke:#555;stroke-width:1;fill:none;stroke-dasharray:4 2}
    .centerline{stroke:#999;stroke-width:.8;stroke-dasharray:8 4;fill:none}
    .dim-line{stroke:#c62828;stroke-width:.9;fill:none}
    .dim-text{font-family:'Segoe UI',Arial,sans-serif;font-size:13px;fill:#c62828;text-anchor:middle}
    .dim-sub{font-family:'Segoe UI',Arial,sans-serif;font-size:11px;fill:#c62828;text-anchor:middle}
    .title{font-family:'Segoe UI',Arial,sans-serif;font-size:18px;font-weight:600;fill:#1a1a1a}
    .subtitle{font-family:'Segoe UI',Arial,sans-serif;font-size:13px;fill:#555}
    .std-ref{font-family:'Segoe UI',Arial,sans-serif;font-size:11px;fill:#888}
    .note{font-family:'Segoe UI',Arial,sans-serif;font-size:10.5px;fill:#888}
    .label{font-family:'Segoe UI',Arial,sans-serif;font-size:11px;fill:#999;text-anchor:middle}
    .tbl-hdr{font-family:'Segoe UI',Arial,sans-serif;font-size:12px;fill:#1a1a1a;font-weight:600;text-anchor:middle}
    .tbl-key{font-family:'Segoe UI',Arial,sans-serif;font-size:10.5px;fill:#555;text-anchor:start}
    .tbl-val{font-family:'Segoe UI',Arial,sans-serif;font-size:10.5px;fill:#888;text-anchor:end}
  </style>
  <marker id="as" markerWidth="8" markerHeight="6" refX="0" refY="3" orient="auto"><path d="M8,0 L0,3 L8,6" fill="none" stroke="#c62828" stroke-width=".8"/></marker>
  <marker id="ae" markerWidth="8" markerHeight="6" refX="8" refY="3" orient="auto"><path d="M0,0 L8,3 L0,6" fill="none" stroke="#c62828" stroke-width=".8"/></marker>
  </defs>
  <rect width="800" height="700" fill="#fafafa"/>
  <text x="40" y="40" class="title">Welding Neck Flange</text>
  <text x="40" y="60" class="subtitle">NPS 4 (DN 100) — Class 150 — Raised Face</text>
  <text x="40" y="78" class="std-ref">ASME B16.5-2020 | WN RF</text>
  <rect x="279" y="201" width="21" height="198" class="profile"/>
  <rect x="300" y="246" width="4" height="109" fill="#d0d5da" stroke="#1a1a1a" stroke-width="1.5"/>
  <path d="M 279 238 L 234 256 L 234 344 L 279 362 Z" class="profile"/>
  <line x1="214" y1="256" x2="314" y2="256" class="bore"/>
  <line x1="214" y1="344" x2="314" y2="344" class="bore"/>
  <circle cx="290" cy="218" r="5" fill="white" stroke="#1a1a1a" stroke-width="1"/>
  <circle cx="290" cy="382" r="5" fill="white" stroke="#1a1a1a" stroke-width="1"/>
  <line x1="290" y1="196" x2="290" y2="404" class="bore"/>
  <line x1="194" y1="300" x2="330" y2="300" class="centerline"/>
  <text x="189" y="304" class="label" text-anchor="end">CL</text>
  <line x1="290" y1="186" x2="290" y2="414" class="centerline"/>
  <line x1="310" y1="201.0" x2="360" y2="201.0" stroke="#c62828" stroke-width=".5" stroke-dasharray="2 2"/>
  <line x1="310" y1="399.0" x2="360" y2="399.0" stroke="#c62828" stroke-width=".5" stroke-dasharray="2 2"/>
  <line x1="355" y1="201.0" x2="355" y2="399.0" class="dim-line" marker-start="url(#as)" marker-end="url(#ae)"/>
  <text x="363" y="295.0" class="dim-text" text-anchor="start">D</text>
  <text x="363" y="310.0" class="dim-sub" text-anchor="start">9.000" | 228.6 mm</text>
  <line x1="279.32" y1="409.0" x2="279.32" y2="439.0" stroke="#c62828" stroke-width=".5" stroke-dasharray="2 2"/>
  <line x1="300" y1="409.0" x2="300" y2="439.0" stroke="#c62828" stroke-width=".5" stroke-dasharray="2 2"/>
  <line x1="279.32" y1="434.0" x2="300" y2="434.0" class="dim-line" marker-start="url(#as)" marker-end="url(#ae)"/>
  <text x="290" y="427.0" class="dim-text">T</text>
  <text x="290" y="449.0" class="dim-sub">0.940" | 23.9 mm</text>
  <line x1="234.0" y1="454.0" x2="234.0" y2="479.0" stroke="#c62828" stroke-width=".5" stroke-dasharray="2 2"/>
  <line x1="234.0" y1="474.0" x2="279.32" y2="474.0" class="dim-line" marker-start="url(#as)" marker-end="url(#ae)"/>
  <text x="257" y="467.0" class="dim-text">Hub L</text>
  <text x="257" y="489.0" class="dim-sub">2.060" | 52.3 mm</text>
  <line x1="219.0" y1="240.714" x2="219.0" y2="240.714" class="dim-line" marker-start="url(#as)" marker-end="url(#ae)"/>
  <text x="219" y="233.714" class="dim-text"></text>
  <text x="219" y="255.714" class="dim-sub">0.000" | 0.0 mm</text>
  <line x1="204.0" y1="255.714" x2="229.0" y2="255.714" stroke="#c62828" stroke-width=".5" stroke-dasharray="2 2"/>
  <line x1="204.0" y1="344.286" x2="229.0" y2="344.286" stroke="#c62828" stroke-width=".5" stroke-dasharray="2 2"/>
  <line x1="209.0" y1="255.714" x2="209.0" y2="344.286" class="dim-line" marker-start="url(#as)" marker-end="url(#ae)"/>
  <text x="217.0" y="295.0" class="dim-text" text-anchor="start">Bore</text>
  <text x="217.0" y="310.0" class="dim-sub" text-anchor="start">4.026" | 102.3 mm</text>
  <line x1="309" y1="245.68200000000002" x2="350" y2="245.68200000000002" stroke="#c62828" stroke-width=".5" stroke-dasharray="2 2"/>
  <line x1="309" y1="354.318" x2="350" y2="354.318" stroke="#c62828" stroke-width=".5" stroke-dasharray="2 2"/>
  <line x1="345" y1="245.68200000000002" x2="345" y2="354.318" class="dim-line" marker-start="url(#as)" marker-end="url(#ae)"/>
  <text x="353" y="295.0" class="dim-text" text-anchor="start">RF</text>
  <text x="353" y="310.0" class="dim-sub" text-anchor="start">4.938" | 125.4 mm</text>
  <rect x="530" y="120" width="240" height="186" rx="4" fill="white" stroke="#ddd" stroke-width=".8"/>
  <text x="650" y="140" class="tbl-hdr">NPS 4 — Key Data</text>
  <line x1="545" y1="148" x2="755" y2="148" stroke="#eee" stroke-width=".5"/>
  <text x="550" y="165" class="tbl-key">NPS / DN</text>
  <text x="750" y="165" class="tbl-val">4 / 100</text>
  <text x="550" y="182" class="tbl-key">Class</text>
  <text x="750" y="182" class="tbl-val">150</text>
  <text x="550" y="199" class="tbl-key">D (flange OD)</text>
  <text x="750" y="199" class="tbl-val">9.000" | 228.6 mm</text>
  <text x="550" y="216" class="tbl-key">BCD</text>
  <text x="750" y="216" class="tbl-val">7.500" | 190.5 mm</text>
  <text x="550" y="233" class="tbl-key">T (thickness)</text>
  <text x="750" y="233" class="tbl-val">0.940" | 23.9 mm</text>
  <text x="550" y="250" class="tbl-key">Hub length</text>
  <text x="750" y="250" class="tbl-val">2.060" | 52.3 mm</text>
  <text x="550" y="267" class="tbl-key">Bore</text>
  <text x="750" y="267" class="tbl-val">4.026" | 102.3 mm</text>
  <text x="550" y="284" class="tbl-key">Bolts</text>
  <text x="750" y="284" class="tbl-val">8 x 5/8"</text>
  <line x1="40" y1="630" x2="760" y2="630" stroke="#ddd" stroke-width=".5"/>
  <text x="40" y="648" class="note">Welding Neck Flange per ASME B16.5-2020, Class 150, Raised Face.</text>
  <text x="40" y="663" class="note">D = flange OD. BCD = bolt circle dia. T = flange thickness. Hub L = hub length.</text>
  <text x="40" y="678" class="note">Bore per ASME B36.10M. Wall thickness varies by schedule. All dims in inches and mm.</text>
  <text x="760" y="692" class="note" text-anchor="end" fill="#ccc">PIPINGBOX</text>
</svg>