<svg xmlns="http://www.w3.org/2000/svg" viewBox="0 0 800 700" width="800" height="700">
  <defs><style>
    .profile{stroke:#1a1a1a;stroke-width:2;fill:#e2e5e8}
    .bore{stroke:#555;stroke-width:1;fill:none;stroke-dasharray:4 2}
    .centerline{stroke:#999;stroke-width:.8;stroke-dasharray:8 4;fill:none}
    .dim-line{stroke:#c62828;stroke-width:.9;fill:none}
    .dim-text{font-family:'Segoe UI',Arial,sans-serif;font-size:13px;fill:#c62828;text-anchor:middle}
    .dim-sub{font-family:'Segoe UI',Arial,sans-serif;font-size:11px;fill:#c62828;text-anchor:middle}
    .title{font-family:'Segoe UI',Arial,sans-serif;font-size:18px;font-weight:600;fill:#1a1a1a}
    .subtitle{font-family:'Segoe UI',Arial,sans-serif;font-size:13px;fill:#555}
    .std-ref{font-family:'Segoe UI',Arial,sans-serif;font-size:11px;fill:#888}
    .note{font-family:'Segoe UI',Arial,sans-serif;font-size:10.5px;fill:#888}
    .label{font-family:'Segoe UI',Arial,sans-serif;font-size:11px;fill:#999;text-anchor:middle}
    .tbl-hdr{font-family:'Segoe UI',Arial,sans-serif;font-size:12px;fill:#1a1a1a;font-weight:600;text-anchor:middle}
    .tbl-key{font-family:'Segoe UI',Arial,sans-serif;font-size:10.5px;fill:#555;text-anchor:start}
    .tbl-val{font-family:'Segoe UI',Arial,sans-serif;font-size:10.5px;fill:#888;text-anchor:end}
  </style>
  <marker id="as" markerWidth="8" markerHeight="6" refX="0" refY="3" orient="auto"><path d="M8,0 L0,3 L8,6" fill="none" stroke="#c62828" stroke-width=".8"/></marker>
  <marker id="ae" markerWidth="8" markerHeight="6" refX="8" refY="3" orient="auto"><path d="M0,0 L8,3 L0,6" fill="none" stroke="#c62828" stroke-width=".8"/></marker>
  </defs>
  <rect width="800" height="700" fill="#fafafa"/>
  <text x="40" y="40" class="title">Welding Neck Flange</text>
  <text x="40" y="60" class="subtitle">NPS 1 1/4 (DN 32) — Class 150 — Raised Face</text>
  <text x="40" y="78" class="std-ref">ASME B16.5-2020 | WN RF</text>
  <rect x="286" y="249" width="14" height="102" class="profile"/>
  <rect x="300" y="272" width="4" height="55" fill="#d0d5da" stroke="#1a1a1a" stroke-width="1.5"/>
  <path d="M 286 279 L 249 285 L 249 315 L 286 321 Z" class="profile"/>
  <line x1="229" y1="285" x2="314" y2="285" class="bore"/>
  <line x1="229" y1="315" x2="314" y2="315" class="bore"/>
  <circle cx="293" cy="262" r="5" fill="white" stroke="#1a1a1a" stroke-width="1"/>
  <circle cx="293" cy="338" r="5" fill="white" stroke="#1a1a1a" stroke-width="1"/>
  <line x1="293" y1="244" x2="293" y2="356" class="bore"/>
  <line x1="209" y1="300" x2="330" y2="300" class="centerline"/>
  <text x="204" y="304" class="label" text-anchor="end">CL</text>
  <line x1="293" y1="234" x2="293" y2="366" class="centerline"/>
  <line x1="310" y1="249.125" x2="360" y2="249.125" stroke="#c62828" stroke-width=".5" stroke-dasharray="2 2"/>
  <line x1="310" y1="350.875" x2="360" y2="350.875" stroke="#c62828" stroke-width=".5" stroke-dasharray="2 2"/>
  <line x1="355" y1="249.125" x2="355" y2="350.875" class="dim-line" marker-start="url(#as)" marker-end="url(#ae)"/>
  <text x="363" y="295.0" class="dim-text" text-anchor="start">D</text>
  <text x="363" y="310.0" class="dim-sub" text-anchor="start">4.625" | 117.5 mm</text>
  <line x1="286.36" y1="360.875" x2="286.36" y2="390.875" stroke="#c62828" stroke-width=".5" stroke-dasharray="2 2"/>
  <line x1="300" y1="360.875" x2="300" y2="390.875" stroke="#c62828" stroke-width=".5" stroke-dasharray="2 2"/>
  <line x1="286.36" y1="385.875" x2="300" y2="385.875" class="dim-line" marker-start="url(#as)" marker-end="url(#ae)"/>
  <text x="293" y="378.875" class="dim-text">T</text>
  <text x="293" y="400.875" class="dim-sub">0.620" | 15.7 mm</text>
  <line x1="249.18" y1="405.875" x2="249.18" y2="430.875" stroke="#c62828" stroke-width=".5" stroke-dasharray="2 2"/>
  <line x1="249.18" y1="425.875" x2="286.36" y2="425.875" class="dim-line" marker-start="url(#as)" marker-end="url(#ae)"/>
  <text x="268" y="418.875" class="dim-text">Hub L</text>
  <text x="268" y="440.875" class="dim-sub">1.690" | 42.9 mm</text>
  <line x1="234.18" y1="269.82" x2="234.18" y2="269.82" class="dim-line" marker-start="url(#as)" marker-end="url(#ae)"/>
  <text x="234" y="262.82" class="dim-text"></text>
  <text x="234" y="284.82" class="dim-sub">0.000" | 0.0 mm</text>
  <line x1="219.18" y1="284.82" x2="244.18" y2="284.82" stroke="#c62828" stroke-width=".5" stroke-dasharray="2 2"/>
  <line x1="219.18" y1="315.18" x2="244.18" y2="315.18" stroke="#c62828" stroke-width=".5" stroke-dasharray="2 2"/>
  <line x1="224.18" y1="284.82" x2="224.18" y2="315.18" class="dim-line" marker-start="url(#as)" marker-end="url(#ae)"/>
  <text x="232.18" y="295.0" class="dim-text" text-anchor="start">Bore</text>
  <text x="232.18" y="310.0" class="dim-sub" text-anchor="start">1.380" | 35.1 mm</text>
  <line x1="309" y1="272.5" x2="350" y2="272.5" stroke="#c62828" stroke-width=".5" stroke-dasharray="2 2"/>
  <line x1="309" y1="327.5" x2="350" y2="327.5" stroke="#c62828" stroke-width=".5" stroke-dasharray="2 2"/>
  <line x1="345" y1="272.5" x2="345" y2="327.5" class="dim-line" marker-start="url(#as)" marker-end="url(#ae)"/>
  <text x="353" y="295.0" class="dim-text" text-anchor="start">RF</text>
  <text x="353" y="310.0" class="dim-sub" text-anchor="start">2.500" | 63.5 mm</text>
  <rect x="530" y="120" width="240" height="186" rx="4" fill="white" stroke="#ddd" stroke-width=".8"/>
  <text x="650" y="140" class="tbl-hdr">NPS 1 1/4 — Key Data</text>
  <line x1="545" y1="148" x2="755" y2="148" stroke="#eee" stroke-width=".5"/>
  <text x="550" y="165" class="tbl-key">NPS / DN</text>
  <text x="750" y="165" class="tbl-val">1 1/4 / 32</text>
  <text x="550" y="182" class="tbl-key">Class</text>
  <text x="750" y="182" class="tbl-val">150</text>
  <text x="550" y="199" class="tbl-key">D (flange OD)</text>
  <text x="750" y="199" class="tbl-val">4.625" | 117.5 mm</text>
  <text x="550" y="216" class="tbl-key">BCD</text>
  <text x="750" y="216" class="tbl-val">3.500" | 88.9 mm</text>
  <text x="550" y="233" class="tbl-key">T (thickness)</text>
  <text x="750" y="233" class="tbl-val">0.620" | 15.7 mm</text>
  <text x="550" y="250" class="tbl-key">Hub length</text>
  <text x="750" y="250" class="tbl-val">1.690" | 42.9 mm</text>
  <text x="550" y="267" class="tbl-key">Bore</text>
  <text x="750" y="267" class="tbl-val">1.380" | 35.1 mm</text>
  <text x="550" y="284" class="tbl-key">Bolts</text>
  <text x="750" y="284" class="tbl-val">4 x 1/2"</text>
  <line x1="40" y1="630" x2="760" y2="630" stroke="#ddd" stroke-width=".5"/>
  <text x="40" y="648" class="note">Welding Neck Flange per ASME B16.5-2020, Class 150, Raised Face.</text>
  <text x="40" y="663" class="note">D = flange OD. BCD = bolt circle dia. T = flange thickness. Hub L = hub length.</text>
  <text x="40" y="678" class="note">Bore per ASME B36.10M. Wall thickness varies by schedule. All dims in inches and mm.</text>
  <text x="760" y="692" class="note" text-anchor="end" fill="#ccc">PIPINGBOX</text>
</svg>