<svg xmlns="http://www.w3.org/2000/svg" viewBox="0 0 800 700" width="800" height="700">
  <defs><style>
    .profile{stroke:#1a1a1a;stroke-width:2;fill:#e2e5e8}
    .bore{stroke:#555;stroke-width:1;fill:none;stroke-dasharray:4 2}
    .bore-solid{stroke:#555;stroke-width:1.6;fill:none}
    .thread{stroke:#8a5a00;stroke-width:1.1;fill:none}
    .radius{stroke:#0b6b8a;stroke-width:1.6;fill:none}
    .centerline{stroke:#999;stroke-width:.8;stroke-dasharray:8 4;fill:none}
    .dim-line{stroke:#c62828;stroke-width:.9;fill:none}
    .dim-ext{stroke:#c62828;stroke-width:.5;stroke-dasharray:2 2}
    .dim-text{font-family:'Segoe UI',Arial,sans-serif;font-size:13px;fill:#c62828;text-anchor:middle}
    .dim-sub{font-family:'Segoe UI',Arial,sans-serif;font-size:11px;fill:#c62828;text-anchor:middle}
    .title{font-family:'Segoe UI',Arial,sans-serif;font-size:18px;font-weight:600;fill:#1a1a1a}
    .subtitle{font-family:'Segoe UI',Arial,sans-serif;font-size:13px;fill:#555}
    .std-ref{font-family:'Segoe UI',Arial,sans-serif;font-size:11px;fill:#888}
    .note{font-family:'Segoe UI',Arial,sans-serif;font-size:10.5px;fill:#888}
    .label{font-family:'Segoe UI',Arial,sans-serif;font-size:11px;fill:#999;text-anchor:middle}
    .tbl-hdr{font-family:'Segoe UI',Arial,sans-serif;font-size:12px;fill:#1a1a1a;font-weight:600;text-anchor:middle}
    .tbl-key{font-family:'Segoe UI',Arial,sans-serif;font-size:10.5px;fill:#555;text-anchor:start}
    .tbl-val{font-family:'Segoe UI',Arial,sans-serif;font-size:10.5px;fill:#888;text-anchor:end}
  </style>
  <marker id="as" markerWidth="8" markerHeight="6" refX="0" refY="3" orient="auto"><path d="M8,0 L0,3 L8,6" fill="none" stroke="#c62828" stroke-width=".8"/></marker>
  <marker id="ae" markerWidth="8" markerHeight="6" refX="8" refY="3" orient="auto"><path d="M0,0 L8,3 L0,6" fill="none" stroke="#c62828" stroke-width=".8"/></marker>
  </defs>
  <rect width="800" height="700" fill="#fafafa"/>
  <text x="40" y="40" class="title">Socket Weld Flange</text>
  <text x="40" y="60" class="subtitle">NPS 3/4 (DN 20) — Class 150 — Raised Face</text>
  <text x="40" y="78" class="std-ref">ASME B16.5-2020 | SW RF</text>
  <rect x="274.22680412371136" y="200" width="25.77319587628866" height="200" class="profile"/>
  <rect x="300" y="256.44329896907215" width="4" height="87.11340206185567" fill="#d0d5da" stroke="#1a1a1a" stroke-width="1.5"/>
  <circle cx="287.1134020618557" cy="229.12371134020617" r="16.108247422680414" fill="white" stroke="#1a1a1a" stroke-width="1"/>
  <circle cx="287.1134020618557" cy="370.87628865979383" r="16.108247422680414" fill="white" stroke="#1a1a1a" stroke-width="1"/>
  <path d="M 274.22680412371136 261.340206185567 L 241.75257731958766 261.340206185567 L 241.75257731958766 338.659793814433 L 274.22680412371136 338.659793814433 Z" class="profile"/>
  <path d="M 241.75257731958766 271.90721649484533 L 264.4329896907217 271.90721649484533 L 264.4329896907217 278.8659793814433 L 300 278.8659793814433" class="bore-solid"/>
  <path d="M 241.75257731958766 328.09278350515467 L 264.4329896907217 328.09278350515467 L 264.4329896907217 321.1340206185567 L 300 321.1340206185567" class="bore-solid"/>
  <line x1="177.75257731958766" y1="300" x2="330" y2="300" class="centerline"/>
  <text x="172.75257731958766" y="304" class="label" text-anchor="end">CL</text>
  
  <line x1="355" y1="200" x2="355" y2="400" class="dim-line" marker-start="url(#as)" marker-end="url(#ae)"/>
  <text x="363" y="295" class="dim-text" text-anchor="start">D</text>
  <text x="363" y="310" class="dim-sub" text-anchor="start">3.880" | 98.550 mm</text>
  <line x1="300" y1="200" x2="362" y2="200" class="dim-ext"/><line x1="300" y1="400" x2="362" y2="400" class="dim-ext"/>
  
  <line x1="274.22680412371136" y1="435" x2="300" y2="435" class="dim-line" marker-start="url(#as)" marker-end="url(#ae)"/>
  <text x="287.1134020618557" y="429" class="dim-text">T</text>
  <text x="287.1134020618557" y="451" class="dim-sub">0.500" | 12.700 mm</text>
  
  <line x1="241.75257731958766" y1="470" x2="274.22680412371136" y2="470" class="dim-line" marker-start="url(#as)" marker-end="url(#ae)"/>
  <text x="257.9896907216495" y="464" class="dim-text">Hub L</text>
  <text x="257.9896907216495" y="486" class="dim-sub">0.630" | 16.000 mm</text>
  
  <line x1="225.75257731958766" y1="256.44329896907215" x2="225.75257731958766" y2="343.55670103092785" class="dim-line" marker-start="url(#as)" marker-end="url(#ae)"/>
  <text x="217.75257731958766" y="272.35051546391753" class="dim-text" text-anchor="end">RF</text>
  <text x="217.75257731958766" y="287.35051546391753" class="dim-sub" text-anchor="end">1.690" | 42.930 mm</text>
  
  <line x1="193.75257731958766" y1="271.90721649484533" x2="193.75257731958766" y2="328.09278350515467" class="dim-line" marker-start="url(#as)" marker-end="url(#ae)"/>
  <text x="185.75257731958766" y="309.60824742268045" class="dim-text" text-anchor="end">B2</text>
  <text x="185.75257731958766" y="324.60824742268045" class="dim-sub" text-anchor="end">1.090" | 27.690 mm</text>
  <rect x="530" y="120" width="240" height="266" rx="4" fill="white" stroke="#ddd" stroke-width=".8"/>
  <text x="650" y="140" class="tbl-hdr">NPS 3/4 — Key Data</text>
  <line x1="545" y1="148" x2="755" y2="148" stroke="#eee" stroke-width=".5"/>
  <text x="550" y="165" class="tbl-key">NPS / DN</text><text x="750" y="165" class="tbl-val">3/4 / 20</text>
  <text x="550" y="182" class="tbl-key">Class</text><text x="750" y="182" class="tbl-val">150</text>
  <text x="550" y="199" class="tbl-key">D (flange OD)</text><text x="750" y="199" class="tbl-val">3.880" | 98.550 mm</text>
  <text x="550" y="216" class="tbl-key">BCD</text><text x="750" y="216" class="tbl-val">2.750" | 69.850 mm</text>
  <text x="550" y="233" class="tbl-key">T (thickness)</text><text x="750" y="233" class="tbl-val">0.500" | 12.700 mm</text>
  <text x="550" y="250" class="tbl-key">Hub length</text><text x="750" y="250" class="tbl-val">0.630" | 16.000 mm</text>
  <text x="550" y="267" class="tbl-key">RF dia</text><text x="750" y="267" class="tbl-val">1.690" | 42.930 mm</text>
  <text x="550" y="284" class="tbl-key">Bore (B1)</text><text x="750" y="284" class="tbl-val">0.820" | 20.830 mm</text>
  <text x="550" y="301" class="tbl-key">Socket (B2)</text><text x="750" y="301" class="tbl-val">1.090" | 27.690 mm</text>
  <text x="550" y="318" class="tbl-key">Socket depth</text><text x="750" y="318" class="tbl-val">0.440" | 11.180 mm</text>
  <text x="550" y="335" class="tbl-key">Bolts</text><text x="750" y="335" class="tbl-val">4 x 0.5"</text>
  <text x="550" y="352" class="tbl-key">Hole dia</text><text x="750" y="352" class="tbl-val">0.625" | 15.880 mm</text>
  <text x="550" y="369" class="tbl-key">Weight (approx)</text><text x="750" y="369" class="tbl-val">2 lb | 0.91 kg</text>
  <line x1="40" y1="630" x2="760" y2="630" stroke="#ddd" stroke-width=".5"/>
  <text x="40" y="648" class="note">Socket Weld Flange per ASME B16.5, Class 150. Source: ferrobend manufacturer table (primary) + wermac drilling/thickness cross-check. CROSS_REFERENCE.</text>
  <text x="40" y="663" class="note">Counterbored socket (B2) with depth D for pipe insertion; fillet weld at hub. B16.5 range NPS 1/2-3 only.</text>
  <text x="40" y="678" class="note">All dims in inches and mm. Weights are approximate.</text>
  <text x="760" y="692" class="note" text-anchor="end" fill="#ccc">PIPINGBOX</text>
</svg>