<svg xmlns="http://www.w3.org/2000/svg" viewBox="0 0 800 700" width="800" height="700">
  <defs><style>
    .profile{stroke:#1a1a1a;stroke-width:2;fill:#e2e5e8}
    .bore{stroke:#555;stroke-width:1;fill:none;stroke-dasharray:4 2}
    .centerline{stroke:#999;stroke-width:.8;stroke-dasharray:8 4;fill:none}
    .dim-line{stroke:#c62828;stroke-width:.9;fill:none}
    .dim-text{font-family:'Segoe UI',Arial,sans-serif;font-size:13px;fill:#c62828;text-anchor:middle}
    .dim-sub{font-family:'Segoe UI',Arial,sans-serif;font-size:11px;fill:#c62828;text-anchor:middle}
    .title{font-family:'Segoe UI',Arial,sans-serif;font-size:18px;font-weight:600;fill:#1a1a1a}
    .subtitle{font-family:'Segoe UI',Arial,sans-serif;font-size:13px;fill:#555}
    .std-ref{font-family:'Segoe UI',Arial,sans-serif;font-size:11px;fill:#888}
    .note{font-family:'Segoe UI',Arial,sans-serif;font-size:10.5px;fill:#888}
    .label{font-family:'Segoe UI',Arial,sans-serif;font-size:11px;fill:#999;text-anchor:middle}
    .tbl-hdr{font-family:'Segoe UI',Arial,sans-serif;font-size:12px;fill:#1a1a1a;font-weight:600;text-anchor:middle}
    .tbl-key{font-family:'Segoe UI',Arial,sans-serif;font-size:10.5px;fill:#555;text-anchor:start}
    .tbl-val{font-family:'Segoe UI',Arial,sans-serif;font-size:10.5px;fill:#888;text-anchor:end}
  </style>
  <marker id="as" markerWidth="8" markerHeight="6" refX="0" refY="3" orient="auto"><path d="M8,0 L0,3 L8,6" fill="none" stroke="#c62828" stroke-width=".8"/></marker>
  <marker id="ae" markerWidth="8" markerHeight="6" refX="8" refY="3" orient="auto"><path d="M0,0 L8,3 L0,6" fill="none" stroke="#c62828" stroke-width=".8"/></marker>
  </defs>
  <rect width="800" height="700" fill="#fafafa"/>
  <text x="40" y="40" class="title">Spectacle Blind</text>
  <text x="40" y="60" class="subtitle">NPS 3/4 (DN 20) — Class 150</text>
  <text x="40" y="78" class="std-ref">ASME B16.48-2015 | Figure-8 blind</text>
  <rect x="283" y="312" width="175" height="16" fill="#d0d5da" stroke="#1a1a1a" stroke-width="1.5"/>
  <circle cx="240" cy="320" r="43" fill="#c8cdd2" stroke="#1a1a1a" stroke-width="2"/>
  <text x="240" y="324" class="label" font-weight="600" fill="#555">BLIND</text>
  <circle cx="270" cy="320" r="4" fill="white" stroke="#1a1a1a" stroke-width=".8"/>
  <circle cx="240" cy="350" r="4" fill="white" stroke="#1a1a1a" stroke-width=".8"/>
  <circle cx="210" cy="320" r="4" fill="white" stroke="#1a1a1a" stroke-width=".8"/>
  <circle cx="240" cy="290" r="4" fill="white" stroke="#1a1a1a" stroke-width=".8"/>
  <circle cx="240" cy="320" r="30" fill="none" stroke="#999" stroke-width=".5" stroke-dasharray="3 2"/>
  <circle cx="500" cy="320" r="43" fill="#d8dce0" stroke="#1a1a1a" stroke-width="2"/>
  <circle cx="500" cy="320" r="12" fill="#fafafa" stroke="#1a1a1a" stroke-width="1.5"/>
  <text x="500" y="349.55" class="label" fill="#555">SPACER</text>
  <circle cx="530" cy="320" r="4" fill="white" stroke="#1a1a1a" stroke-width=".8"/>
  <circle cx="500" cy="350" r="4" fill="white" stroke="#1a1a1a" stroke-width=".8"/>
  <circle cx="470" cy="320" r="4" fill="white" stroke="#1a1a1a" stroke-width=".8"/>
  <circle cx="500" cy="290" r="4" fill="white" stroke="#1a1a1a" stroke-width=".8"/>
  <circle cx="500" cy="320" r="30" fill="none" stroke="#999" stroke-width=".5" stroke-dasharray="3 2"/>
  <line x1="182" y1="320" x2="558" y2="320" class="centerline"/>
  <line x1="240" y1="262" x2="240" y2="378" class="centerline"/>
  <line x1="500" y1="262" x2="500" y2="378" class="centerline"/>
  <line x1="197.375" y1="397.625" x2="282.625" y2="397.625" class="dim-line" marker-start="url(#as)" marker-end="url(#ae)"/>
  <text x="240" y="390.625" class="dim-text">D</text>
  <text x="240" y="412.625" class="dim-sub">3.875" | 98.4 mm</text>
  <line x1="197.375" y1="367.625" x2="197.375" y2="402.625" stroke="#c62828" stroke-width=".5" stroke-dasharray="2 2"/>
  <line x1="282.625" y1="367.625" x2="282.625" y2="402.625" stroke="#c62828" stroke-width=".5" stroke-dasharray="2 2"/>
  <line x1="488.45" y1="247.375" x2="511.55" y2="247.375" class="dim-line" marker-start="url(#as)" marker-end="url(#ae)"/>
  <text x="500" y="240.375" class="dim-text">Pipe OD</text>
  <text x="500" y="262.375" class="dim-sub">1.050" | 26.7 mm</text>
  <line x1="488.45" y1="303.45" x2="488.45" y2="242.375" stroke="#c62828" stroke-width=".5" stroke-dasharray="2 2"/>
  <line x1="511.55" y1="303.45" x2="511.55" y2="242.375" stroke="#c62828" stroke-width=".5" stroke-dasharray="2 2"/>
  <rect x="530" y="60" width="240" height="186" rx="4" fill="white" stroke="#ddd" stroke-width=".8"/>
  <text x="650" y="80" class="tbl-hdr">NPS 3/4 — Key Data</text>
  <line x1="545" y1="88" x2="755" y2="88" stroke="#eee" stroke-width=".5"/>
  <text x="550" y="105" class="tbl-key">NPS / DN</text>
  <text x="750" y="105" class="tbl-val">3/4 / 20</text>
  <text x="550" y="122" class="tbl-key">Class</text>
  <text x="750" y="122" class="tbl-val">150</text>
  <text x="550" y="139" class="tbl-key">D (disc OD)</text>
  <text x="750" y="139" class="tbl-val">3.875" | 98.4 mm</text>
  <text x="550" y="156" class="tbl-key">Pipe OD (spacer hole)</text>
  <text x="750" y="156" class="tbl-val">1.050" | 26.7 mm</text>
  <text x="550" y="173" class="tbl-key">BCD</text>
  <text x="750" y="173" class="tbl-val">2.750" | 69.9 mm</text>
  <text x="550" y="190" class="tbl-key">T blind</text>
  <text x="750" y="190" class="tbl-val">0.125" | 3.2 mm</text>
  <text x="550" y="207" class="tbl-key">T spacer</text>
  <text x="750" y="207" class="tbl-val">0.125" | 3.2 mm</text>
  <text x="550" y="224" class="tbl-key">Bolts</text>
  <text x="750" y="224" class="tbl-val">4 x 1/2"</text>
  <line x1="40" y1="630" x2="760" y2="630" stroke="#ddd" stroke-width=".5"/>
  <text x="40" y="648" class="note">Spectacle Blind per ASME B16.48-2015, Class 150.</text>
  <text x="40" y="663" class="note">Figure-8 design: blind disc + spacer ring connected by bar.</text>
  <text x="40" y="678" class="note">Bolt pattern matches mating flange. All dimensions in inches and mm.</text>
  <text x="760" y="692" class="note" text-anchor="end" fill="#ccc">PIPINGBOX</text>
</svg>