<svg xmlns="http://www.w3.org/2000/svg" viewBox="0 0 800 700" width="800" height="700">
  <defs><style>
    .profile{stroke:#1a1a1a;stroke-width:2;fill:#e2e5e8}
    .bore{stroke:#555;stroke-width:1;fill:none;stroke-dasharray:4 2}
    .centerline{stroke:#999;stroke-width:.8;stroke-dasharray:8 4;fill:none}
    .dim-line{stroke:#c62828;stroke-width:.9;fill:none}
    .dim-text{font-family:'Segoe UI',Arial,sans-serif;font-size:13px;fill:#c62828;text-anchor:middle}
    .dim-sub{font-family:'Segoe UI',Arial,sans-serif;font-size:11px;fill:#c62828;text-anchor:middle}
    .title{font-family:'Segoe UI',Arial,sans-serif;font-size:18px;font-weight:600;fill:#1a1a1a}
    .subtitle{font-family:'Segoe UI',Arial,sans-serif;font-size:13px;fill:#555}
    .std-ref{font-family:'Segoe UI',Arial,sans-serif;font-size:11px;fill:#888}
    .note{font-family:'Segoe UI',Arial,sans-serif;font-size:10.5px;fill:#888}
    .label{font-family:'Segoe UI',Arial,sans-serif;font-size:11px;fill:#999;text-anchor:middle}
    .tbl-hdr{font-family:'Segoe UI',Arial,sans-serif;font-size:12px;fill:#1a1a1a;font-weight:600;text-anchor:middle}
    .tbl-key{font-family:'Segoe UI',Arial,sans-serif;font-size:10.5px;fill:#555;text-anchor:start}
    .tbl-val{font-family:'Segoe UI',Arial,sans-serif;font-size:10.5px;fill:#888;text-anchor:end}
  </style>
  <marker id="as" markerWidth="8" markerHeight="6" refX="0" refY="3" orient="auto"><path d="M8,0 L0,3 L8,6" fill="none" stroke="#c62828" stroke-width=".8"/></marker>
  <marker id="ae" markerWidth="8" markerHeight="6" refX="8" refY="3" orient="auto"><path d="M0,0 L8,3 L0,6" fill="none" stroke="#c62828" stroke-width=".8"/></marker>
  </defs>
  <rect width="800" height="700" fill="#fafafa"/>
  <text x="40" y="40" class="title">Stud Bolt + 2 Hex Nuts</text>
  <text x="40" y="60" class="subtitle">For NPS 12 (DN 300) Flange — Class 150</text>
  <text x="40" y="78" class="std-ref">ASME B16.5 App.2 | ASTM A193 B7 + A194 2H</text>
  <rect x="321" y="287" width="158" height="26" class="profile"/>
  <line x1="324" y1="288" x2="324" y2="312" stroke="#aaa" stroke-width=".4"/>
  <line x1="330" y1="288" x2="330" y2="312" stroke="#aaa" stroke-width=".4"/>
  <line x1="336" y1="288" x2="336" y2="312" stroke="#aaa" stroke-width=".4"/>
  <line x1="342" y1="288" x2="342" y2="312" stroke="#aaa" stroke-width=".4"/>
  <line x1="348" y1="288" x2="348" y2="312" stroke="#aaa" stroke-width=".4"/>
  <line x1="354" y1="288" x2="354" y2="312" stroke="#aaa" stroke-width=".4"/>
  <line x1="360" y1="288" x2="360" y2="312" stroke="#aaa" stroke-width=".4"/>
  <line x1="366" y1="288" x2="366" y2="312" stroke="#aaa" stroke-width=".4"/>
  <line x1="372" y1="288" x2="372" y2="312" stroke="#aaa" stroke-width=".4"/>
  <line x1="378" y1="288" x2="378" y2="312" stroke="#aaa" stroke-width=".4"/>
  <line x1="384" y1="288" x2="384" y2="312" stroke="#aaa" stroke-width=".4"/>
  <line x1="390" y1="288" x2="390" y2="312" stroke="#aaa" stroke-width=".4"/>
  <line x1="396" y1="288" x2="396" y2="312" stroke="#aaa" stroke-width=".4"/>
  <line x1="402" y1="288" x2="402" y2="312" stroke="#aaa" stroke-width=".4"/>
  <line x1="408" y1="288" x2="408" y2="312" stroke="#aaa" stroke-width=".4"/>
  <line x1="414" y1="288" x2="414" y2="312" stroke="#aaa" stroke-width=".4"/>
  <line x1="420" y1="288" x2="420" y2="312" stroke="#aaa" stroke-width=".4"/>
  <line x1="426" y1="288" x2="426" y2="312" stroke="#aaa" stroke-width=".4"/>
  <line x1="432" y1="288" x2="432" y2="312" stroke="#aaa" stroke-width=".4"/>
  <line x1="438" y1="288" x2="438" y2="312" stroke="#aaa" stroke-width=".4"/>
  <line x1="444" y1="288" x2="444" y2="312" stroke="#aaa" stroke-width=".4"/>
  <line x1="450" y1="288" x2="450" y2="312" stroke="#aaa" stroke-width=".4"/>
  <line x1="456" y1="288" x2="456" y2="312" stroke="#aaa" stroke-width=".4"/>
  <line x1="462" y1="288" x2="462" y2="312" stroke="#aaa" stroke-width=".4"/>
  <line x1="468" y1="288" x2="468" y2="312" stroke="#aaa" stroke-width=".4"/>
  <line x1="474" y1="288" x2="474" y2="312" stroke="#aaa" stroke-width=".4"/>
  <rect x="309" y="280" width="24" height="40" rx="2" fill="#c8cdd2" stroke="#1a1a1a" stroke-width="2"/>
  <rect x="467" y="280" width="24" height="40" rx="2" fill="#c8cdd2" stroke="#1a1a1a" stroke-width="2"/>
  <line x1="279" y1="300" x2="521" y2="300" class="centerline"/>
  <text x="274" y="304" class="label" text-anchor="end">CL</text>
  <line x1="321.25" y1="323.125" x2="321.25" y2="363.125" stroke="#c62828" stroke-width=".5" stroke-dasharray="2 2"/>
  <line x1="478.75" y1="323.125" x2="478.75" y2="363.125" stroke="#c62828" stroke-width=".5" stroke-dasharray="2 2"/>
  <line x1="321.25" y1="358.125" x2="478.75" y2="358.125" class="dim-line" marker-start="url(#as)" marker-end="url(#ae)"/>
  <text x="400" y="351.125" class="dim-text">L</text>
  <text x="400" y="373.125" class="dim-sub">5.250" | 133.4 mm</text>
  <line x1="311.25" y1="286.875" x2="271.25" y2="286.875" stroke="#c62828" stroke-width=".5" stroke-dasharray="2 2"/>
  <line x1="311.25" y1="313.125" x2="271.25" y2="313.125" stroke="#c62828" stroke-width=".5" stroke-dasharray="2 2"/>
  <line x1="276.25" y1="286.875" x2="276.25" y2="313.125" class="dim-line" marker-start="url(#as)" marker-end="url(#ae)"/>
  <text x="284.25" y="295.0" class="dim-text" text-anchor="start">d</text>
  <text x="284.25" y="310.0" class="dim-sub" text-anchor="start">0.875" | 22.2 mm</text>
  <line x1="495.81" y1="279.9" x2="535.81" y2="279.9" stroke="#c62828" stroke-width=".5" stroke-dasharray="2 2"/>
  <line x1="495.81" y1="320.1" x2="535.81" y2="320.1" stroke="#c62828" stroke-width=".5" stroke-dasharray="2 2"/>
  <line x1="530.81" y1="279.9" x2="530.81" y2="320.1" class="dim-line" marker-start="url(#as)" marker-end="url(#ae)"/>
  <text x="538.81" y="295.0" class="dim-text" text-anchor="start">AF</text>
  <text x="538.81" y="310.0" class="dim-sub" text-anchor="start">1.340" | 34.0 mm</text>
  <rect x="530" y="120" width="240" height="169" rx="4" fill="white" stroke="#ddd" stroke-width=".8"/>
  <text x="650" y="140" class="tbl-hdr">NPS 12 — Key Data</text>
  <line x1="545" y1="148" x2="755" y2="148" stroke="#eee" stroke-width=".5"/>
  <text x="550" y="165" class="tbl-key">For flange NPS</text>
  <text x="750" y="165" class="tbl-val">12 / DN 300</text>
  <text x="550" y="182" class="tbl-key">Class</text>
  <text x="750" y="182" class="tbl-val">150</text>
  <text x="550" y="199" class="tbl-key">Bolt dia.</text>
  <text x="750" y="199" class="tbl-val">0.875" | 22.2 mm</text>
  <text x="550" y="216" class="tbl-key">Length</text>
  <text x="750" y="216" class="tbl-val">5.250" | 133.4 mm</text>
  <text x="550" y="233" class="tbl-key">Nut AF</text>
  <text x="750" y="233" class="tbl-val">1.340" | 34.0 mm</text>
  <text x="550" y="250" class="tbl-key">Quantity</text>
  <text x="750" y="250" class="tbl-val">12 per joint</text>
  <text x="550" y="267" class="tbl-key">Material</text>
  <text x="750" y="267" class="tbl-val">A193 B7 / A194 2H</text>
  <line x1="40" y1="630" x2="760" y2="630" stroke="#ddd" stroke-width=".5"/>
  <text x="40" y="648" class="note">Stud Bolt per ASME B16.5-2020 Appendix 2, Class 150.</text>
  <text x="40" y="663" class="note">Material: ASTM A193 Grade B7 bolt + ASTM A194 Grade 2H nut.</text>
  <text x="40" y="678" class="note">L = total stud length. AF = nut across flats. All dims in inches and mm.</text>
  <text x="760" y="692" class="note" text-anchor="end" fill="#ccc">PIPINGBOX</text>
</svg>