<svg xmlns="http://www.w3.org/2000/svg" viewBox="0 0 800 700" width="800" height="700">
  <defs><style>
    .profile{stroke:#1a1a1a;stroke-width:2;fill:#e2e5e8}
    .bore{stroke:#555;stroke-width:1;fill:none;stroke-dasharray:4 2}
    .bore-solid{stroke:#555;stroke-width:1.6;fill:none}
    .thread{stroke:#8a5a00;stroke-width:1.1;fill:none}
    .radius{stroke:#0b6b8a;stroke-width:1.6;fill:none}
    .centerline{stroke:#999;stroke-width:.8;stroke-dasharray:8 4;fill:none}
    .dim-line{stroke:#c62828;stroke-width:.9;fill:none}
    .dim-ext{stroke:#c62828;stroke-width:.5;stroke-dasharray:2 2}
    .dim-text{font-family:'Segoe UI',Arial,sans-serif;font-size:13px;fill:#c62828;text-anchor:middle}
    .dim-sub{font-family:'Segoe UI',Arial,sans-serif;font-size:11px;fill:#c62828;text-anchor:middle}
    .title{font-family:'Segoe UI',Arial,sans-serif;font-size:18px;font-weight:600;fill:#1a1a1a}
    .subtitle{font-family:'Segoe UI',Arial,sans-serif;font-size:13px;fill:#555}
    .std-ref{font-family:'Segoe UI',Arial,sans-serif;font-size:11px;fill:#888}
    .note{font-family:'Segoe UI',Arial,sans-serif;font-size:10.5px;fill:#888}
    .label{font-family:'Segoe UI',Arial,sans-serif;font-size:11px;fill:#999;text-anchor:middle}
    .tbl-hdr{font-family:'Segoe UI',Arial,sans-serif;font-size:12px;fill:#1a1a1a;font-weight:600;text-anchor:middle}
    .tbl-key{font-family:'Segoe UI',Arial,sans-serif;font-size:10.5px;fill:#555;text-anchor:start}
    .tbl-val{font-family:'Segoe UI',Arial,sans-serif;font-size:10.5px;fill:#888;text-anchor:end}
  </style>
  <marker id="as" markerWidth="8" markerHeight="6" refX="0" refY="3" orient="auto"><path d="M8,0 L0,3 L8,6" fill="none" stroke="#c62828" stroke-width=".8"/></marker>
  <marker id="ae" markerWidth="8" markerHeight="6" refX="8" refY="3" orient="auto"><path d="M0,0 L8,3 L0,6" fill="none" stroke="#c62828" stroke-width=".8"/></marker>
  </defs>
  <rect width="800" height="700" fill="#fafafa"/>
  <text x="40" y="40" class="title">Threaded Flange</text>
  <text x="40" y="60" class="subtitle">NPS 1-1/2 (DN 40) — Class 150 — Raised Face</text>
  <text x="40" y="78" class="std-ref">ASME B16.5-2020 | THD RF</text>
  <rect x="272.4" y="200" width="27.599999999999998" height="200" class="profile"/>
  <rect x="300" y="242.4" width="4" height="115.19999999999999" fill="#d0d5da" stroke="#1a1a1a" stroke-width="1.5"/>
  <circle cx="286.2" cy="222.4" r="12.5" fill="white" stroke="#1a1a1a" stroke-width="1"/>
  <circle cx="286.2" cy="377.6" r="12.5" fill="white" stroke="#1a1a1a" stroke-width="1"/>
  <path d="M 272.4 248.8 L 237.2 248.8 L 237.2 351.2 L 272.4 351.2 Z" class="profile"/>
  <line x1="241.2" y1="268.256" x2="244.7" y2="272.256" class="thread"/>
  <line x1="241.2" y1="331.744" x2="244.7" y2="327.744" class="thread"/>
  <line x1="248.2" y1="268.256" x2="251.7" y2="272.256" class="thread"/>
  <line x1="248.2" y1="331.744" x2="251.7" y2="327.744" class="thread"/>
  <line x1="255.2" y1="268.256" x2="258.7" y2="272.256" class="thread"/>
  <line x1="255.2" y1="331.744" x2="258.7" y2="327.744" class="thread"/>
  <line x1="262.2" y1="268.256" x2="265.7" y2="272.256" class="thread"/>
  <line x1="262.2" y1="331.744" x2="265.7" y2="327.744" class="thread"/>
  <line x1="269.2" y1="268.256" x2="272.7" y2="272.256" class="thread"/>
  <line x1="269.2" y1="331.744" x2="272.7" y2="327.744" class="thread"/>
  <line x1="276.2" y1="268.256" x2="279.7" y2="272.256" class="thread"/>
  <line x1="276.2" y1="331.744" x2="279.7" y2="327.744" class="thread"/>
  <line x1="283.2" y1="268.256" x2="286.7" y2="272.256" class="thread"/>
  <line x1="283.2" y1="331.744" x2="286.7" y2="327.744" class="thread"/>
  <line x1="290.2" y1="268.256" x2="293.7" y2="272.256" class="thread"/>
  <line x1="290.2" y1="331.744" x2="293.7" y2="327.744" class="thread"/>
  <line x1="297.2" y1="268.256" x2="300.7" y2="272.256" class="thread"/>
  <line x1="297.2" y1="331.744" x2="300.7" y2="327.744" class="thread"/>
  <line x1="173.2" y1="300" x2="330" y2="300" class="centerline"/>
  <text x="168.2" y="304" class="label" text-anchor="end">CL</text>
  
  <line x1="355" y1="200" x2="355" y2="400" class="dim-line" marker-start="url(#as)" marker-end="url(#ae)"/>
  <text x="363" y="295" class="dim-text" text-anchor="start">D</text>
  <text x="363" y="310" class="dim-sub" text-anchor="start">5.000" | 127.000 mm</text>
  <line x1="300" y1="200" x2="362" y2="200" class="dim-ext"/><line x1="300" y1="400" x2="362" y2="400" class="dim-ext"/>
  
  <line x1="272.4" y1="435" x2="300" y2="435" class="dim-line" marker-start="url(#as)" marker-end="url(#ae)"/>
  <text x="286.2" y="429" class="dim-text">T</text>
  <text x="286.2" y="451" class="dim-sub">0.690" | 17.530 mm</text>
  
  <line x1="237.2" y1="470" x2="272.4" y2="470" class="dim-line" marker-start="url(#as)" marker-end="url(#ae)"/>
  <text x="254.79999999999998" y="464" class="dim-text">Hub L</text>
  <text x="254.79999999999998" y="486" class="dim-sub">0.880" | 22.350 mm</text>
  
  <line x1="221.2" y1="242.4" x2="221.2" y2="357.6" class="dim-line" marker-start="url(#as)" marker-end="url(#ae)"/>
  <text x="213.2" y="265.048" class="dim-text" text-anchor="end">RF</text>
  <text x="213.2" y="280.048" class="dim-sub" text-anchor="end">2.880" | 73.150 mm</text>
  <rect x="530" y="120" width="240" height="215" rx="4" fill="white" stroke="#ddd" stroke-width=".8"/>
  <text x="650" y="140" class="tbl-hdr">NPS 1-1/2 — Key Data</text>
  <line x1="545" y1="148" x2="755" y2="148" stroke="#eee" stroke-width=".5"/>
  <text x="550" y="165" class="tbl-key">NPS / DN</text><text x="750" y="165" class="tbl-val">1-1/2 / 40</text>
  <text x="550" y="182" class="tbl-key">Class</text><text x="750" y="182" class="tbl-val">150</text>
  <text x="550" y="199" class="tbl-key">D (flange OD)</text><text x="750" y="199" class="tbl-val">5.000" | 127.000 mm</text>
  <text x="550" y="216" class="tbl-key">BCD</text><text x="750" y="216" class="tbl-val">3.880" | 98.550 mm</text>
  <text x="550" y="233" class="tbl-key">T (thickness)</text><text x="750" y="233" class="tbl-val">0.690" | 17.530 mm</text>
  <text x="550" y="250" class="tbl-key">Hub length</text><text x="750" y="250" class="tbl-val">0.880" | 22.350 mm</text>
  <text x="550" y="267" class="tbl-key">RF dia</text><text x="750" y="267" class="tbl-val">2.880" | 73.150 mm</text>
  <text x="550" y="284" class="tbl-key">Bolts</text><text x="750" y="284" class="tbl-val">4 x 0.5"</text>
  <text x="550" y="301" class="tbl-key">Hole dia</text><text x="750" y="301" class="tbl-val">0.625" | 15.880 mm</text>
  <text x="550" y="318" class="tbl-key">Weight (approx)</text><text x="750" y="318" class="tbl-val">3 lb | 1.36 kg</text>
  <line x1="40" y1="630" x2="760" y2="630" stroke="#ddd" stroke-width=".5"/>
  <text x="40" y="648" class="note">Threaded Flange per ASME B16.5, Class 150. Source: ferrobend manufacturer table (primary) + wermac drilling/thickness cross-check. CROSS_REFERENCE.</text>
  <text x="40" y="663" class="note">Internal NPT thread shown as simplified thread marks; no certified thread geometry claim.</text>
  <text x="40" y="678" class="note">All dims in inches and mm. Weights are approximate.</text>
  <text x="760" y="692" class="note" text-anchor="end" fill="#ccc">PIPINGBOX</text>
</svg>